<svg width="40" height="40" viewBox="0 0 40 40" fill="none" xmlns="http://www.w3.org/2000/svg">
<circle cx="20" cy="20" r="20" fill="#555566"/>
<path d="M17.026 27C23.064 27 26.367 21.997 26.367 17.666C26.367 17.526 26.367 17.384 26.361 17.244C27.0041 16.7784 27.5591 16.2021 28 15.542C27.3993 15.8068 26.7628 15.9814 26.111 16.06C26.7975 15.6496 27.3117 15.0039 27.558 14.243C26.913 14.6251 26.207 14.8933 25.471 15.036C24.9762 14.509 24.3214 14.1599 23.6081 14.0427C22.8948 13.9256 22.1627 14.0469 21.5253 14.3879C20.888 14.7289 20.3808 15.2706 20.0824 15.929C19.7841 16.5875 19.7112 17.3259 19.875 18.03C18.5697 17.9645 17.2928 17.6254 16.127 17.0347C14.9613 16.444 13.9327 15.6148 13.108 14.601C12.6893 15.324 12.5616 16.1794 12.7506 16.9932C12.9397 17.8071 13.4315 18.5185 14.126 18.983C13.6055 18.9653 13.0965 18.8255 12.64 18.575V18.62C12.6409 19.3774 12.9033 20.1114 13.3829 20.6977C13.8624 21.2841 14.5297 21.6868 15.272 21.838C14.9903 21.9156 14.6992 21.9543 14.407 21.953C14.201 21.9536 13.9954 21.9345 13.793 21.896C14.0028 22.548 14.4113 23.1181 14.9612 23.5264C15.5112 23.9347 16.1751 24.1608 16.86 24.173C15.6966 25.0868 14.2594 25.5824 12.78 25.58C12.5193 25.5811 12.2588 25.566 12 25.535C13.5015 26.4922 15.2453 27.0005 17.026 27Z" fill="#CCCCD1"/>
</svg>
