<svg width="40" height="40" viewBox="0 0 40 40" fill="none" xmlns="http://www.w3.org/2000/svg">
<circle cx="20" cy="20" r="20" fill="#555566"/>
<path d="M20.0068 15.5078C17.5225 15.5078 15.5186 17.5117 15.5186 19.9961C15.5186 22.4805 17.5225 24.4844 20.0068 24.4844C22.4912 24.4844 24.4951 22.4805 24.4951 19.9961C24.4951 17.5117 22.4912 15.5078 20.0068 15.5078ZM20.0068 22.9141C18.4014 22.9141 17.0889 21.6055 17.0889 19.9961C17.0889 18.3867 18.3975 17.0781 20.0068 17.0781C21.6162 17.0781 22.9248 18.3867 22.9248 19.9961C22.9248 21.6055 21.6123 22.9141 20.0068 22.9141ZM25.7256 15.3242C25.7256 15.9062 25.2568 16.3711 24.6787 16.3711C24.0967 16.3711 23.6318 15.9023 23.6318 15.3242C23.6318 14.7461 24.1006 14.2773 24.6787 14.2773C25.2568 14.2773 25.7256 14.7461 25.7256 15.3242ZM28.6982 16.3867C28.6318 14.9844 28.3115 13.7422 27.2842 12.7187C26.2607 11.6953 25.0186 11.375 23.6162 11.3047C22.1709 11.2227 17.8389 11.2227 16.3936 11.3047C14.9951 11.3711 13.7529 11.6914 12.7256 12.7148C11.6982 13.7383 11.3818 14.9805 11.3115 16.3828C11.2295 17.8281 11.2295 22.1602 11.3115 23.6055C11.3779 25.0078 11.6982 26.25 12.7256 27.2734C13.7529 28.2969 14.9912 28.6172 16.3936 28.6875C17.8389 28.7695 22.1709 28.7695 23.6162 28.6875C25.0186 28.6211 26.2607 28.3008 27.2842 27.2734C28.3076 26.25 28.6279 25.0078 28.6982 23.6055C28.7803 22.1602 28.7803 17.832 28.6982 16.3867ZM26.8311 25.1562C26.5264 25.9219 25.9365 26.5117 25.167 26.8203C24.0146 27.2773 21.2803 27.1719 20.0068 27.1719C18.7334 27.1719 15.9951 27.2734 14.8467 26.8203C14.0811 26.5156 13.4912 25.9258 13.1826 25.1562C12.7256 24.0039 12.8311 21.2695 12.8311 19.9961C12.8311 18.7227 12.7295 15.9844 13.1826 14.8359C13.4873 14.0703 14.0771 13.4805 14.8467 13.1719C15.999 12.7148 18.7334 12.8203 20.0068 12.8203C21.2803 12.8203 24.0186 12.7187 25.167 13.1719C25.9326 13.4766 26.5225 14.0664 26.8311 14.8359C27.2881 15.9883 27.1826 18.7227 27.1826 19.9961C27.1826 21.2695 27.2881 24.0078 26.8311 25.1562Z" fill="#CCCCD1"/>
</svg>
