<svg width="24" height="26" viewBox="0 0 24 26" fill="none" xmlns="http://www.w3.org/2000/svg">
<path d="M19 11.9865H5M19 11.9865C20.1046 11.9865 21 12.894 21 14.0135V20.0947C21 21.2142 20.1046 22.1217 19 22.1217H5C3.89543 22.1217 3 21.2142 3 20.0947V14.0135C3 12.894 3.89543 11.9865 5 11.9865M19 11.9865V9.95943C19 8.83992 18.1046 7.93237 17 7.93237M5 11.9865V9.95943C5 8.83992 5.89543 7.93237 7 7.93237M7 7.93237V5.90532C7 4.78581 7.89543 3.87827 9 3.87827H15C16.1046 3.87827 17 4.78581 17 5.90532V7.93237M7 7.93237H17" stroke="#FDFDFD" stroke-width="2" stroke-linecap="round" stroke-linejoin="round"/>
</svg>
