<svg width="56" height="56" viewBox="0 0 56 56" fill="none" xmlns="http://www.w3.org/2000/svg">
<circle cx="28" cy="28" r="28" fill="#CCCCE6" fill-opacity="0.5"/>
<path d="M34.9266 19.3205C35.8136 18.8019 36.4166 18.1075 36.7317 17.1717C36.9989 16.3796 36.7982 16.0465 35.9718 16.0408C34.5431 16.0298 33.1035 15.9381 31.6864 16.0722C30.6987 16.1672 29.7451 16.5934 28.769 16.8443C28.5469 16.9015 28.3139 16.897 28.095 16.8334C27.4191 16.6357 26.7683 16.2346 26.0872 16.1858C24.3506 16.0587 22.603 16.0639 20.858 16.0395C20.0794 16.0273 19.8463 16.3752 20.0955 17.1184C20.4144 18.0677 21.0071 18.8096 21.8961 19.3083C20.5093 20.6542 20.0523 21.5214 20.0439 22.9565C20.0316 25.4603 20.0413 27.9641 20.0523 30.4685C20.0561 31.4884 20.5029 32.3266 21.1691 33.0782C21.3641 33.2977 21.3789 33.333 21.6107 33.5737C21.7198 33.6956 21.8108 33.8188 21.9374 33.9434L24.1892 35.987C25.4436 37.2597 26.5662 38.4067 27.698 39.5433C28.3003 40.1486 28.5004 40.1499 29.0931 39.5639C31.1661 37.5139 33.2152 35.4388 35.314 33.4132C36.3056 32.4556 36.7917 31.3536 36.7743 29.9833C36.7485 27.9531 36.6774 25.9166 36.8014 23.8949C36.9137 22.0412 36.4263 20.5272 34.9266 19.3205ZM21.5339 17.2975C23.042 17.2975 24.5171 17.2057 25.9704 17.3379C26.6392 17.4002 27.2577 17.9245 27.9168 18.1922C28.1783 18.2994 28.5095 18.3693 28.7748 18.3071C29.3997 18.1607 29.9924 17.8058 30.6192 17.7506C31.687 17.6556 32.7755 17.6845 33.853 17.6845C34.0383 17.671 34.1719 17.6967 34.3527 17.6941C33.966 17.9553 33.1525 18.4893 32.7574 18.4945C30.9498 18.5189 29.4843 19.1337 28.461 20.7261C28.1873 20.4148 27.9639 20.1382 27.716 19.8866C26.738 18.886 25.5301 18.4752 24.1459 18.5555C22.8741 18.6286 21.9329 18.1858 21.5339 17.2975ZM28.5011 25.4359C28.9956 25.8922 29.6128 26.4622 30.2648 27.0649C29.6748 27.6014 29.0498 28.1701 28.4068 28.7561C27.7515 28.1451 27.1808 27.6117 26.7515 27.2125C27.3623 26.5925 27.9523 25.9943 28.5011 25.4359ZM24.6166 19.6145C26.4881 19.6742 27.92 21.1895 27.8884 23.072C27.8587 24.8788 26.3235 26.3531 24.4926 26.3345C22.5965 26.3152 21.1091 24.7799 21.1485 22.8827C21.1866 21.0483 22.7721 19.5548 24.6166 19.6145ZM22.1072 26.7645C21.7908 26.9866 21.5571 27.1515 21.2492 27.3672V26.1066C21.55 26.3364 21.8063 26.5328 22.1072 26.7645ZM31.687 35.4504C31.4798 35.2578 31.3003 35.098 31.1299 34.9292C29.279 33.1013 27.43 31.2714 25.5804 29.4422C25.4836 29.3472 25.399 29.1932 25.286 29.1701C25.0517 29.1213 24.8025 29.1405 24.5585 29.1322C24.5585 29.3774 24.4674 29.679 24.5778 29.8543C24.7793 30.1713 25.102 30.4107 25.3732 30.6829C27.1944 32.5057 29.0156 34.3297 30.8897 36.2077C30.5779 36.4773 30.319 36.7668 29.9227 37.1121C29.0498 36.2154 27.9588 35.0685 26.9588 34.0608C25.94 33.0345 24.9032 32.023 23.8735 31.0057C23.5972 30.7323 23.3002 30.3773 22.9077 30.7753C22.5139 31.1732 22.8954 31.4595 23.1543 31.738L25.9755 34.5833C25.9755 34.582 25.9768 34.582 25.9768 34.582C26.0162 34.6224 26.0556 34.6648 26.0956 34.7052L26.115 34.7245C27.0698 35.7129 28.1989 36.7668 29.2358 37.8406C29.0298 38.0575 28.6838 38.3553 28.4404 38.6114C27.4171 37.6108 26.4152 36.6314 25.3674 35.6063L22.5423 32.8574L22.5384 32.8535C21.5797 32.0827 21.0155 31.1809 21.1678 29.9499C21.3112 28.8029 21.94 27.9743 23.0446 27.5879C24.2389 27.1695 25.3274 27.3954 26.2331 28.3068C28.3035 30.3908 30.3688 32.4793 32.4798 34.6096C32.2526 34.8503 31.995 35.1243 31.687 35.4504ZM35.026 32.0159C34.5315 32.6212 33.9227 33.1359 33.3275 33.729C31.9492 32.3394 30.6315 31.0128 29.2358 29.6065C29.8361 29.0404 30.4152 28.3729 31.1125 27.8639C32.27 27.0161 33.8381 27.267 34.8679 28.3569C35.8065 29.3498 35.9073 30.9357 35.026 32.0159ZM34.7181 26.7427C35.0189 26.5206 35.2481 26.3499 35.5574 26.1214C35.5806 26.3935 35.5993 26.5629 35.6064 26.7305C35.6135 26.9095 35.6077 27.0867 35.6077 27.4211C35.2559 27.1534 35.0067 26.9634 34.7181 26.7427ZM32.3126 26.3338C30.452 26.3255 28.933 24.8114 28.9343 22.9674C28.9343 21.142 30.4901 19.6074 32.3339 19.6145C34.1881 19.6215 35.7162 21.1472 35.7123 22.9879C35.7071 24.8268 34.1668 26.3434 32.3126 26.3338Z" fill="#000080"/>
<path d="M22.108 26.7631C21.7916 26.9852 21.5579 27.1501 21.25 27.3658V26.1052C21.5508 26.335 21.8071 26.5314 22.108 26.7631Z" fill="#0AFEFF"/>
<path d="M35.6084 27.4196C35.2572 27.1513 35.008 26.962 34.7188 26.7412C35.0196 26.5191 35.2488 26.3484 35.558 26.1199C35.5813 26.392 35.6 26.5615 35.6071 26.729C35.6135 26.908 35.6084 27.0852 35.6084 27.4196Z" fill="#0AFEFF"/>
<path d="M32.4767 34.6081C32.2494 34.8494 31.9918 35.1229 31.6839 35.4489C31.4767 35.2564 31.2972 35.0965 31.1267 34.9277C29.2758 33.0998 27.4269 31.2699 25.5773 29.4407C25.4804 29.3457 25.2738 29.1737 25.1609 29.1506C24.9265 29.1018 24.8 29.1391 24.556 29.1307C24.556 29.3759 24.4649 29.6776 24.5753 29.8528C24.7767 30.1698 25.0995 30.4092 25.3707 30.6814C27.1919 32.5042 29.0131 34.3283 30.8872 36.2063C30.5754 36.4758 30.3165 36.7653 29.9201 37.1106C29.0473 36.214 27.9563 35.067 26.9562 34.0593C25.9375 33.033 24.9007 32.0215 23.871 31.0042C23.5947 30.7308 23.2977 30.3759 22.9052 30.7738C22.5114 31.1717 22.8929 31.458 23.1518 31.7365L25.973 34.5818C25.973 34.5805 25.9743 34.5805 25.9743 34.5805C26.0137 34.6209 26.0531 34.6633 26.0931 34.7037L26.1125 34.723C27.0673 35.7114 28.1964 36.7653 29.2332 37.8391C29.0273 38.056 28.6813 38.3538 28.4379 38.6099C27.4146 37.6093 26.4127 36.6299 25.3649 35.6049L22.5398 32.8559L22.5359 32.8521C21.5772 32.0812 21.013 31.1794 21.1653 29.9484C21.3086 28.8015 21.9374 27.9728 23.042 27.5865C24.2364 27.168 25.3248 27.3939 26.2306 28.3053C28.3004 30.3893 30.3656 32.4779 32.4767 34.6081Z" fill="white"/>
<path d="M30.2633 27.0639C29.6732 27.6005 29.0483 28.1691 28.4053 28.7551C27.75 28.1441 27.1793 27.6107 26.75 27.2115C27.3601 26.5915 27.9502 25.9927 28.4989 25.4349C28.9934 25.8906 29.6106 26.4612 30.2633 27.0639Z" fill="#FBB03B"/>
<path d="M35.0247 32.0143C34.5301 32.6196 33.9213 33.1343 33.3261 33.7274C31.9478 32.3378 30.6301 31.0111 29.2344 29.6049C29.8348 29.0388 30.4139 28.3713 31.1111 27.8623C32.2686 27.0144 33.8368 27.2654 34.8665 28.3552C35.8052 29.3481 35.9059 30.9341 35.0247 32.0143Z" fill="#0AFEFF"/>
<path d="M32.3372 19.6129C30.4927 19.6059 28.9375 21.1405 28.9375 22.9659C28.9362 24.8105 30.4546 26.3246 32.3159 26.3323C34.17 26.3419 35.7104 24.8253 35.7155 22.9858C35.7194 21.1456 34.1906 19.6194 32.3372 19.6129ZM32.66 24.1006C32.0699 24.2983 31.5786 24.0814 31.2732 23.5615C30.9627 23.0345 31.0583 22.5147 31.505 22.0949C31.9479 21.6764 32.4844 21.6938 33.1177 22.1315C32.8956 22.3792 32.6774 22.6244 32.3875 22.9479C32.8033 22.9113 33.119 22.8844 33.4811 22.8516C33.5386 23.5332 33.2171 23.9151 32.66 24.1006Z" fill="white"/>
<path d="M34.3507 17.6927C33.964 17.9539 33.1505 18.4879 32.7555 18.493C30.9478 18.5174 29.4823 19.1323 28.4591 20.7247C28.1853 20.4134 27.962 20.1368 27.714 19.8852C26.736 18.8846 25.5281 18.4738 24.1439 18.554C22.8715 18.6272 21.9302 18.1843 21.5312 17.296C23.0393 17.296 24.5145 17.2042 25.9677 17.3365C26.6366 17.3987 27.255 17.9231 27.9142 18.1907C28.1756 18.2979 28.5068 18.3679 28.7722 18.3056C29.3971 18.1593 29.9897 17.8044 30.6166 17.7492C31.6844 17.6542 32.7729 17.6831 33.8504 17.6831C34.0357 17.6696 34.1693 17.6952 34.3507 17.6927Z" fill="#0AFEFF"/>
<path d="M24.6173 19.6129C22.7729 19.5532 21.1873 21.0468 21.1492 22.8805C21.1098 24.7778 22.5973 26.3137 24.4934 26.3323C26.3242 26.3515 27.8595 24.8766 27.8891 23.0698C27.9201 21.188 26.4889 19.6726 24.6173 19.6129ZM24.8788 24.0923C24.2932 24.2996 23.8026 24.1019 23.4785 23.5833C23.1473 23.0525 23.2499 22.5403 23.6825 22.1116C24.1183 21.6809 24.669 21.6918 25.3023 22.136C25.0886 22.3824 24.8762 22.6263 24.6018 22.9415C24.9969 22.9087 25.299 22.8831 25.6386 22.8548C25.7574 23.5127 25.4359 23.8946 24.8788 24.0923Z" fill="white"/>
<path d="M32.654 24.1007C32.0639 24.2984 31.5726 24.0814 31.2672 23.5616C30.9567 23.0346 31.0522 22.5147 31.499 22.095C31.9419 21.6765 32.4784 21.6938 33.1117 22.1316C32.8896 22.3793 32.6714 22.6245 32.3815 22.948C32.7973 22.9114 33.113 22.8844 33.4751 22.8517C33.5326 23.5333 33.2111 23.9152 32.654 24.1007Z" fill="#000080"/>
<path d="M24.8774 24.0922C24.2918 24.2995 23.8012 24.1018 23.4771 23.5832C23.1459 23.0525 23.2485 22.5403 23.6811 22.1115C24.1169 21.6809 24.6676 21.6918 25.3009 22.1359C25.0872 22.3824 24.8748 22.6263 24.6004 22.9414C24.9955 22.9087 25.2976 22.883 25.6372 22.8548C25.756 23.5126 25.4345 23.8945 24.8774 24.0922Z" fill="#000080"/>
</svg>
