<svg width="106" height="32" viewBox="0 0 106 32" fill="none" xmlns="http://www.w3.org/2000/svg">
<path d="M7.84781 25.2639C6.48781 25.2639 5.21581 25.0959 4.03181 24.7599C2.84781 24.4239 1.83981 23.9599 1.00781 23.3679L2.11181 20.4399C2.65581 20.8079 3.23181 21.1199 3.83981 21.3759C4.44781 21.6319 5.08781 21.8319 5.75981 21.9759C6.43181 22.1039 7.13581 22.1679 7.87181 22.1679C9.02381 22.1679 9.83981 21.9919 10.3198 21.6399C10.8158 21.2879 11.0638 20.8399 11.0638 20.2959C11.0638 19.7999 10.8958 19.4239 10.5598 19.1679C10.2398 18.8959 9.64781 18.6639 8.78381 18.4719L5.95181 17.8959C4.39981 17.5759 3.23981 17.0319 2.47181 16.2639C1.70381 15.4959 1.31981 14.4719 1.31981 13.1919C1.31981 12.1039 1.60781 11.1599 2.18381 10.3599C2.75981 9.55994 3.56781 8.93594 4.60781 8.48794C5.66381 8.03994 6.89581 7.81594 8.30381 7.81594C9.50381 7.81594 10.6238 7.98394 11.6638 8.31994C12.7038 8.65594 13.5598 9.13594 14.2318 9.75994L13.1278 12.4959C12.4718 11.9679 11.7358 11.5759 10.9198 11.3199C10.1198 11.0479 9.22381 10.9119 8.23181 10.9119C7.19181 10.9119 6.39181 11.0959 5.83181 11.4639C5.28781 11.8319 5.01581 12.3359 5.01581 12.9759C5.01581 13.4559 5.18381 13.8479 5.51981 14.1519C5.85581 14.4399 6.44781 14.6719 7.29581 14.8479L10.0798 15.3999C11.6638 15.7199 12.8398 16.2559 13.6078 17.0079C14.3758 17.7599 14.7598 18.7599 14.7598 20.0079C14.7598 21.0639 14.4718 21.9839 13.8958 22.7679C13.3358 23.5519 12.5358 24.1679 11.4958 24.6159C10.4718 25.0479 9.25581 25.2639 7.84781 25.2639Z" fill="white"/>
<path d="M23.1407 25.2639C21.8447 25.2639 20.7087 25.0079 19.7327 24.4959C18.7567 23.9839 18.0047 23.2479 17.4767 22.2879C16.9487 21.3279 16.6847 20.1919 16.6847 18.8799C16.6847 17.5519 16.9487 16.4239 17.4767 15.4959C18.0207 14.5519 18.7727 13.8319 19.7327 13.3359C20.7087 12.8399 21.8447 12.5919 23.1407 12.5919C23.9567 12.5919 24.7487 12.7119 25.5167 12.9519C26.3007 13.1919 26.9407 13.5279 27.4367 13.9599L26.3807 16.4559C25.9807 16.0879 25.5167 15.8159 24.9887 15.6399C24.4767 15.4479 23.9807 15.3519 23.5007 15.3519C22.5247 15.3519 21.7647 15.6559 21.2207 16.2639C20.6767 16.8719 20.4047 17.7519 20.4047 18.9039C20.4047 20.0559 20.6767 20.9359 21.2207 21.5439C21.7647 22.1519 22.5247 22.4559 23.5007 22.4559C23.9647 22.4559 24.4527 22.3679 24.9647 22.1919C25.4927 22.0159 25.9647 21.7519 26.3807 21.3999L27.4367 23.8719C26.9247 24.3039 26.2767 24.6479 25.4927 24.9039C24.7247 25.1439 23.9407 25.2639 23.1407 25.2639Z" fill="white"/>
<path d="M29.4956 24.9999V7.33594H33.1196V15.1119H32.7596C33.1436 14.2959 33.7116 13.6719 34.4636 13.2399C35.2156 12.8079 36.0796 12.5919 37.0556 12.5919C38.4796 12.5919 39.5436 13.0079 40.2476 13.8399C40.9516 14.6559 41.3036 15.9119 41.3036 17.6079V24.9999H37.6796V17.7759C37.6796 16.9279 37.5196 16.3199 37.1996 15.9519C36.8956 15.5839 36.4156 15.3999 35.7596 15.3999C34.9596 15.3999 34.3196 15.6479 33.8396 16.1439C33.3596 16.6399 33.1196 17.3039 33.1196 18.1359V24.9999H29.4956Z" fill="white"/>
<path d="M49.9744 25.2639C48.6784 25.2639 47.5504 25.0079 46.5904 24.4959C45.6464 23.9679 44.9104 23.2319 44.3824 22.2879C43.8704 21.3439 43.6144 20.2159 43.6144 18.9039C43.6144 17.6079 43.8704 16.4879 44.3824 15.5439C44.9104 14.5999 45.6464 13.8719 46.5904 13.3599C47.5504 12.8479 48.6784 12.5919 49.9744 12.5919C51.2704 12.5919 52.3984 12.8479 53.3584 13.3599C54.3184 13.8719 55.0544 14.5999 55.5664 15.5439C56.0944 16.4879 56.3584 17.6079 56.3584 18.9039C56.3584 20.2159 56.0944 21.3439 55.5664 22.2879C55.0544 23.2319 54.3184 23.9679 53.3584 24.4959C52.3984 25.0079 51.2704 25.2639 49.9744 25.2639ZM49.9744 22.5279C50.8064 22.5279 51.4624 22.2319 51.9424 21.6399C52.4384 21.0479 52.6864 20.1359 52.6864 18.9039C52.6864 17.6719 52.4384 16.7679 51.9424 16.1919C51.4624 15.6159 50.8064 15.3279 49.9744 15.3279C49.1424 15.3279 48.4784 15.6159 47.9824 16.1919C47.5024 16.7679 47.2624 17.6719 47.2624 18.9039C47.2624 20.1359 47.5024 21.0479 47.9824 21.6399C48.4784 22.2319 49.1424 22.5279 49.9744 22.5279Z" fill="white"/>
<path d="M58.6987 24.9999V7.33594H62.3228V24.9999H58.6987Z" fill="white"/>
<path d="M70.0127 25.2639C68.9567 25.2639 68.0287 25.0079 67.2287 24.4959C66.4287 23.9839 65.8047 23.2559 65.3567 22.3119C64.9087 21.3679 64.6847 20.2319 64.6847 18.9039C64.6847 17.5919 64.9087 16.4639 65.3567 15.5199C65.8047 14.5759 66.4287 13.8559 67.2287 13.3599C68.0287 12.8479 68.9567 12.5919 70.0127 12.5919C70.9887 12.5919 71.8607 12.8319 72.6287 13.3119C73.4127 13.7759 73.9247 14.4079 74.1647 15.2079H73.9007L74.1887 12.8319H77.6687C77.6207 13.3599 77.5727 13.8959 77.5247 14.4399C77.4927 14.9679 77.4767 15.4879 77.4767 15.9999V24.9999H73.8767L73.8527 22.7199H74.1407C73.8847 23.4879 73.3727 24.1039 72.6047 24.5679C71.8367 25.0319 70.9727 25.2639 70.0127 25.2639ZM71.1167 22.5279C71.9487 22.5279 72.6207 22.2319 73.1327 21.6399C73.6447 21.0479 73.9007 20.1359 73.9007 18.9039C73.9007 17.6719 73.6447 16.7679 73.1327 16.1919C72.6207 15.6159 71.9487 15.3279 71.1167 15.3279C70.2847 15.3279 69.6127 15.6159 69.1007 16.1919C68.5887 16.7679 68.3327 17.6719 68.3327 18.9039C68.3327 20.1359 68.5807 21.0479 69.0767 21.6399C69.5887 22.2319 70.2687 22.5279 71.1167 22.5279Z" fill="white"/>
<path d="M80.4247 24.9999V16.0479C80.4247 15.5199 80.4087 14.9839 80.3767 14.4399C80.3607 13.8959 80.3207 13.3599 80.2567 12.8319H83.7367L84.1447 16.3839H83.5928C83.7528 15.5199 84.0088 14.8079 84.3607 14.2479C84.7287 13.6879 85.1768 13.2719 85.7048 12.9999C86.2487 12.7279 86.8647 12.5919 87.5527 12.5919C87.8568 12.5919 88.0967 12.6079 88.2727 12.6399C88.4487 12.6559 88.6247 12.6959 88.8008 12.7599L88.7767 15.9519C88.4408 15.8079 88.1527 15.7199 87.9128 15.6879C87.6888 15.6399 87.4007 15.6159 87.0487 15.6159C86.3767 15.6159 85.8167 15.7439 85.3687 15.9999C84.9367 16.2559 84.6087 16.6319 84.3848 17.1279C84.1768 17.6239 84.0727 18.2239 84.0727 18.9279V24.9999H80.4247Z" fill="white"/>
<path d="M88.3959 24.9999L95.4759 15.5919V17.2479L88.5879 8.07994H92.9799L97.5879 14.5359H96.3879L101.02 8.07994H105.412L98.4999 17.2479V15.5919L105.628 24.9999H101.212L96.3879 18.3039H97.6119L92.7639 24.9999H88.3959Z" fill="white"/>
</svg>
