<svg width="1201" height="604" viewBox="0 0 1201 604" fill="none" xmlns="http://www.w3.org/2000/svg">
<mask id="mask0_1106_1966" style="mask-type:alpha" maskUnits="userSpaceOnUse" x="0" y="0" width="1201" height="604">
<rect width="1201" height="604" rx="8" fill="#E5E5F2"/>
</mask>
<g mask="url(#mask0_1106_1966)">
<path d="M169.088 -41.5163C169.235 -39.1537 169.339 -36.7757 169.397 -34.3835C169.121 -34.3772 168.902 -34.1487 168.908 -33.8729C168.937 -32.5205 168.952 -31.1637 168.952 -29.8025C168.952 -28.4413 168.937 -27.0845 168.908 -25.7321C168.902 -25.4563 169.121 -25.2278 169.397 -25.2215C169.339 -22.8293 169.235 -20.4513 169.088 -18.0887C168.813 -18.1063 168.575 -17.8975 168.557 -17.6222C168.38 -14.9055 168.144 -12.2095 167.852 -9.53616C167.822 -9.26189 168.02 -9.01518 168.294 -8.98479C168.027 -6.60742 167.715 -4.24805 167.359 -1.90802C167.087 -1.94987 166.832 -1.76299 166.789 -1.49033C166.373 1.19916 165.898 3.86276 165.367 6.49835C165.312 6.76883 165.487 7.03229 165.757 7.08716C165.278 9.43028 164.755 11.7512 164.188 14.0485C163.92 13.982 163.649 14.1449 163.582 14.4125C162.922 17.0552 162.204 19.6662 161.43 22.2431C161.35 22.5074 161.5 22.7859 161.764 22.8656C161.069 25.1567 160.33 27.4208 159.548 29.6564C159.288 29.5649 159.003 29.7015 158.911 29.9616C158.004 32.5292 157.041 35.0587 156.023 37.5476C155.919 37.8029 156.041 38.0946 156.296 38.1993C155.383 40.4117 154.427 42.5919 153.43 44.7383C153.18 44.6217 152.883 44.7295 152.766 44.9793C151.611 47.4436 150.401 49.8626 149.138 52.2338C149.009 52.4773 149.101 52.7798 149.344 52.9098C148.212 55.0177 147.039 57.0876 145.825 59.1178C145.588 58.9759 145.282 59.0522 145.139 59.2885C143.733 61.6219 142.274 63.9019 140.763 66.1257C140.608 66.3539 140.667 66.6645 140.895 66.8198C139.542 68.7958 138.149 70.7271 136.716 72.612C136.497 72.4447 136.184 72.4866 136.016 72.7056C134.362 74.866 132.657 76.9642 130.902 78.9972C130.722 79.206 130.745 79.5213 130.953 79.7018C129.384 81.5067 127.776 83.26 126.13 84.9594C125.932 84.7672 125.616 84.7714 125.424 84.9688C123.523 86.9168 121.573 88.7928 119.577 90.5934C119.372 90.7781 119.356 91.0938 119.54 91.2988C117.757 92.8941 115.938 94.4297 114.083 95.9035C113.912 95.6873 113.598 95.6504 113.382 95.8211C111.249 97.5014 109.072 99.0996 106.851 100.612C106.623 100.767 106.564 101.078 106.718 101.306C104.737 102.643 102.722 103.912 100.675 105.112C100.536 104.873 100.231 104.793 99.9921 104.931C97.6471 106.29 95.2609 107.558 92.8364 108.729C92.5881 108.849 92.4838 109.147 92.6031 109.395C90.4515 110.422 88.27 111.374 86.0606 112.247C85.9599 111.991 85.6705 111.864 85.4136 111.964C82.8961 112.946 80.3429 113.826 77.757 114.601C77.4928 114.68 77.3427 114.958 77.4212 115.222C75.1404 115.894 72.8343 116.483 70.5051 116.989C70.4474 116.72 70.1824 116.548 69.9126 116.605C67.2788 117.163 64.6157 117.613 61.9261 117.952C61.6525 117.986 61.4586 118.236 61.4923 118.509C59.1422 118.793 56.7722 118.992 54.3843 119.104C54.3721 118.828 54.1394 118.615 53.8639 118.626C52.5175 118.682 51.1655 118.711 49.808 118.711C48.4506 118.711 47.0986 118.682 45.7522 118.626C45.4767 118.615 45.244 118.828 45.2318 119.104C42.8439 118.992 40.4739 118.793 38.1238 118.509C38.1576 118.236 37.9636 117.986 37.69 117.952C35.0004 117.613 32.3372 117.163 29.7035 116.605C29.4337 116.548 29.1687 116.72 29.111 116.989C26.7818 116.483 24.4757 115.894 22.1949 115.222C22.2734 114.958 22.1232 114.68 21.8591 114.601C19.2732 113.826 16.7199 112.946 14.2025 111.964C13.9456 111.864 13.6562 111.991 13.5555 112.247C11.3461 111.374 9.16462 110.422 7.01297 109.395C7.13226 109.147 7.028 108.849 6.77969 108.729C4.35522 107.558 1.96899 106.29 -0.376007 104.931C-0.614571 104.793 -0.920013 104.873 -1.05878 105.112C-3.10572 103.912 -5.12093 102.643 -7.10241 101.306C-6.94772 101.078 -7.00686 100.767 -7.23479 100.612C-9.45544 99.0996 -11.6334 97.5014 -13.7657 95.8211C-13.9824 95.6504 -14.2962 95.6873 -14.4673 95.9035C-16.3216 94.4297 -18.141 92.894 -19.9239 91.2988C-19.7396 91.0937 -19.7561 90.7781 -19.9609 90.5934C-21.9571 88.7928 -23.9069 86.9168 -25.8076 84.9688C-26.0002 84.7714 -26.3163 84.7672 -26.514 84.9594C-28.1594 83.26 -29.7678 81.5067 -31.3372 79.7018C-31.1288 79.5213 -31.1059 79.206 -31.2861 78.9972C-33.0407 76.9642 -34.7462 74.866 -36.4001 72.7056C-36.5678 72.4865 -36.8811 72.4447 -37.1003 72.612C-38.5327 70.7271 -39.926 68.7957 -41.2785 66.8198C-41.0507 66.6644 -40.9916 66.3539 -41.1467 66.1257C-42.6577 63.9019 -44.1173 61.6219 -45.5232 59.2885C-45.6655 59.0522 -45.9723 58.9758 -46.2088 59.1178C-47.4228 57.0876 -48.5962 55.0177 -49.7277 52.9098C-49.4845 52.7797 -49.3925 52.4773 -49.5222 52.2338C-50.7852 49.8626 -51.995 47.4436 -53.1496 44.9793C-53.2667 44.7295 -53.5639 44.6217 -53.8138 44.7383C-54.8113 42.5919 -55.7671 40.4117 -56.6797 38.1993C-56.4246 38.0945 -56.3024 37.8029 -56.4069 37.5475C-57.4247 35.0587 -58.3879 32.5292 -59.2946 29.9616C-59.3864 29.7014 -59.6716 29.5649 -59.9318 29.6564C-60.7138 27.4208 -61.453 25.1566 -62.1481 22.8656C-61.8841 22.7859 -61.7344 22.5074 -61.8137 22.2431C-62.5875 19.6662 -63.3055 17.0552 -63.9658 14.4125C-64.0327 14.1448 -64.3038 13.982 -64.5714 14.0485C-65.1385 11.7512 -65.6623 9.43028 -66.1414 7.08716C-65.8711 7.03229 -65.6962 6.76881 -65.7507 6.49835C-66.282 3.86275 -66.7567 1.19916 -67.1732 -1.49033C-67.2155 -1.76299 -67.4705 -1.94987 -67.7432 -1.90802C-68.099 -4.24805 -68.4108 -6.60742 -68.6777 -8.98479C-68.4035 -9.01518 -68.2057 -9.26189 -68.2357 -9.53616C-68.5284 -12.2095 -68.764 -14.9055 -68.9409 -17.6222C-68.9589 -17.8975 -69.1964 -18.1062 -69.4717 -18.0887C-69.6192 -20.4512 -69.7225 -22.8293 -69.7805 -25.2215C-69.5047 -25.2278 -69.2861 -25.4563 -69.292 -25.7321C-69.3212 -27.0845 -69.3359 -28.4413 -69.3359 -29.8025C-69.3359 -31.1636 -69.3212 -32.5205 -69.2921 -33.8728C-69.2861 -34.1487 -69.5047 -34.3772 -69.7805 -34.3835C-69.7225 -36.7757 -69.6192 -39.1537 -69.4717 -41.5162C-69.1964 -41.4987 -68.9589 -41.7074 -68.9409 -41.9827C-68.764 -44.6994 -68.5284 -47.3954 -68.2357 -50.0688C-68.2057 -50.343 -68.4035 -50.5898 -68.6777 -50.6201C-68.4108 -52.9975 -68.099 -55.3569 -67.7432 -57.6969C-67.4705 -57.6551 -67.2155 -57.8419 -67.1732 -58.1146C-66.7567 -60.8041 -66.282 -63.4677 -65.7507 -66.1033C-65.6962 -66.3738 -65.8711 -66.6372 -66.1414 -66.6921C-65.6623 -69.0352 -65.1386 -71.3561 -64.5715 -73.6534C-64.3038 -73.5869 -64.0327 -73.7498 -63.9658 -74.0175C-63.3055 -76.6601 -62.5875 -79.2711 -61.8138 -81.8481C-61.7344 -82.1123 -61.8841 -82.3908 -62.1481 -82.4705C-61.453 -84.7616 -60.7138 -87.0257 -59.9318 -89.2613C-59.6716 -89.1699 -59.3864 -89.3064 -59.2946 -89.5666C-58.3879 -92.1341 -57.4247 -94.6636 -56.4069 -97.1525C-56.3024 -97.4079 -56.4246 -97.6995 -56.6797 -97.8043C-55.7671 -100.017 -54.8113 -102.197 -53.8138 -104.343C-53.5639 -104.227 -53.2667 -104.334 -53.1496 -104.584C-51.995 -107.049 -50.7852 -109.468 -49.5222 -111.839C-49.3925 -112.082 -49.4845 -112.385 -49.7277 -112.515C-48.5962 -114.623 -47.4228 -116.693 -46.2088 -118.723C-45.9723 -118.581 -45.6655 -118.657 -45.5232 -118.893C-44.1174 -121.227 -42.6578 -123.507 -41.1467 -125.731C-40.9916 -125.959 -41.0507 -126.269 -41.2785 -126.425C-39.926 -128.401 -38.5327 -130.332 -37.1003 -132.217C-36.8811 -132.05 -36.5678 -132.092 -36.4001 -132.311C-34.7462 -134.471 -33.0407 -136.569 -31.2861 -138.602C-31.1059 -138.811 -31.1288 -139.126 -31.3372 -139.307C-29.7678 -141.112 -28.1594 -142.865 -26.514 -144.564C-26.3163 -144.372 -26.0002 -144.376 -25.8076 -144.574C-23.9069 -146.522 -21.9571 -148.398 -19.9609 -150.198C-19.7561 -150.383 -19.7396 -150.699 -19.9239 -150.904C-18.141 -152.499 -16.3216 -154.035 -14.4673 -155.509C-14.2962 -155.292 -13.9823 -155.255 -13.7657 -155.426C-11.6334 -157.106 -9.45544 -158.705 -7.23478 -160.217C-7.00686 -160.372 -6.94771 -160.683 -7.1024 -160.911C-5.12091 -162.248 -3.10571 -163.517 -1.05877 -164.717C-0.919991 -164.478 -0.614563 -164.397 -0.375992 -164.536C1.96899 -165.895 4.35522 -167.163 6.77969 -168.334C7.02799 -168.454 7.13226 -168.752 7.01297 -169C9.16462 -170.027 11.3461 -170.979 13.5555 -171.852C13.6562 -171.596 13.9456 -171.469 14.2025 -171.569C16.7199 -172.551 19.2732 -173.431 21.8591 -174.206C22.1232 -174.285 22.2734 -174.563 22.1949 -174.827C24.4757 -175.498 26.7818 -176.088 29.111 -176.594C29.1687 -176.325 29.4337 -176.153 29.7035 -176.21C32.3372 -176.768 35.0004 -177.218 37.69 -177.557C37.9636 -177.591 38.1575 -177.841 38.1238 -178.114C40.4739 -178.398 42.8439 -178.597 45.2318 -178.709C45.244 -178.433 45.4767 -178.22 45.7522 -178.231C47.0986 -178.287 48.4506 -178.316 49.808 -178.316C51.1654 -178.316 52.5175 -178.287 53.8639 -178.231C54.1394 -178.22 54.3721 -178.433 54.3842 -178.709C56.7722 -178.597 59.1422 -178.398 61.4923 -178.114C61.4586 -177.841 61.6525 -177.591 61.9261 -177.557C64.6156 -177.218 67.2788 -176.768 69.9126 -176.21C70.1823 -176.153 70.4473 -176.325 70.5051 -176.594C72.8343 -176.088 75.1404 -175.498 77.4212 -174.827C77.3427 -174.563 77.4928 -174.285 77.757 -174.206C80.3429 -173.431 82.8961 -172.551 85.4136 -171.569C85.6705 -171.469 85.9599 -171.596 86.0606 -171.852C88.27 -170.979 90.4515 -170.027 92.6031 -169C92.4838 -168.752 92.5881 -168.454 92.8364 -168.334C95.2609 -167.163 97.6471 -165.895 99.9921 -164.536C100.231 -164.397 100.536 -164.478 100.675 -164.717C102.722 -163.517 104.737 -162.248 106.719 -160.911C106.564 -160.683 106.623 -160.372 106.851 -160.217C109.072 -158.705 111.249 -157.106 113.382 -155.426C113.598 -155.255 113.912 -155.292 114.083 -155.508C115.938 -154.035 117.757 -152.499 119.54 -150.904C119.356 -150.699 119.372 -150.383 119.577 -150.198C121.573 -148.398 123.523 -146.522 125.424 -144.574C125.616 -144.376 125.932 -144.372 126.13 -144.564C127.776 -142.865 129.384 -141.112 130.953 -139.307C130.745 -139.126 130.722 -138.811 130.902 -138.602C132.657 -136.569 134.362 -134.471 136.016 -132.311C136.184 -132.092 136.497 -132.05 136.716 -132.217C138.149 -130.332 139.542 -128.401 140.895 -126.425C140.667 -126.269 140.608 -125.959 140.763 -125.731C142.274 -123.507 143.733 -121.227 145.139 -118.893C145.282 -118.657 145.588 -118.581 145.825 -118.723C147.039 -116.693 148.212 -114.623 149.344 -112.515C149.101 -112.385 149.009 -112.082 149.138 -111.839C150.401 -109.468 151.611 -107.049 152.766 -104.584C152.883 -104.334 153.18 -104.227 153.43 -104.343C154.427 -102.197 155.383 -100.017 156.296 -97.8043C156.041 -97.6995 155.919 -97.4079 156.023 -97.1525C157.041 -94.6636 158.004 -92.1342 158.911 -89.5666C159.003 -89.3064 159.288 -89.1699 159.548 -89.2613C160.33 -87.0257 161.069 -84.7616 161.764 -82.4706C161.5 -82.3909 161.35 -82.1124 161.43 -81.8481C162.204 -79.2711 162.922 -76.6602 163.582 -74.0175C163.649 -73.7498 163.92 -73.587 164.188 -73.6535C164.755 -71.3562 165.278 -69.0353 165.757 -66.6921C165.487 -66.6373 165.312 -66.3738 165.367 -66.1033C165.898 -63.4677 166.373 -60.8041 166.789 -58.1146C166.832 -57.842 167.087 -57.6551 167.359 -57.697C167.715 -55.3569 168.027 -52.9976 168.294 -50.6202C168.02 -50.5898 167.822 -50.3431 167.852 -50.0688C168.144 -47.3955 168.38 -44.6995 168.557 -41.9828C168.575 -41.7075 168.813 -41.4987 169.088 -41.5163Z" stroke="#000080" stroke-opacity="0.5" stroke-linecap="round" stroke-dasharray="8 8"/>
<path d="M181.075 -41.6486C181.218 -39.2559 181.317 -36.8486 181.373 -34.428C181.097 -34.422 180.878 -34.1938 180.884 -33.9179C180.912 -32.5503 180.926 -31.1785 180.926 -29.8026C180.926 -28.4267 180.912 -27.0549 180.884 -25.6873C180.878 -25.4114 181.097 -25.1832 181.373 -25.1772C181.317 -22.7566 181.218 -20.3493 181.075 -17.9566C180.8 -17.9734 180.563 -17.7639 180.546 -17.4885C180.375 -14.7428 180.149 -12.0164 179.867 -9.31105C179.838 -9.03661 180.037 -8.79091 180.312 -8.76199C180.055 -6.35472 179.754 -3.9642 179.411 -1.5916C179.138 -1.63144 178.884 -1.44266 178.844 -1.16968C178.443 1.5515 177.987 4.24879 177.475 6.92036C177.423 7.19136 177.601 7.45311 177.872 7.50533C177.41 9.88168 176.906 12.2376 176.36 14.5719C176.091 14.5087 175.822 14.6748 175.758 14.9433C175.124 17.6193 174.435 20.2664 173.692 22.8828C173.617 23.1482 173.77 23.4245 174.036 23.5002C173.368 25.8268 172.658 28.1289 171.906 30.4052C171.645 30.3184 171.362 30.46 171.275 30.7217C170.405 33.3303 169.482 35.9045 168.506 38.4424C168.406 38.6999 168.535 38.9889 168.792 39.0883C167.917 41.3446 167 43.572 166.042 45.7691C165.79 45.6585 165.495 45.7735 165.384 46.0261C164.279 48.543 163.12 51.0195 161.91 53.4536C161.787 53.7006 161.888 54.0004 162.135 54.1235C161.05 56.2895 159.924 58.4216 158.759 60.5183C158.519 60.384 158.214 60.4701 158.08 60.7109C156.737 63.1115 155.342 65.465 153.897 67.7692C153.75 68.0029 153.821 68.3111 154.054 68.458C152.761 70.5057 151.429 72.5143 150.058 74.482C149.832 74.324 149.521 74.3789 149.363 74.6048C147.784 76.8558 146.156 79.0526 144.48 81.1927C144.31 81.4099 144.347 81.7237 144.564 81.8941C143.066 83.7946 141.529 85.6501 139.956 87.4589C139.748 87.2776 139.433 87.2987 139.251 87.5062C137.441 89.5728 135.584 91.5773 133.681 93.517C133.488 93.7139 133.491 94.0301 133.687 94.2235C131.987 95.9451 130.25 97.6154 128.479 99.2325C128.293 99.0285 127.978 99.0132 127.773 99.1985C125.738 101.043 123.657 102.818 121.534 104.518C121.319 104.691 121.284 105.005 121.456 105.221C119.563 106.726 117.636 108.173 115.677 109.56C115.518 109.335 115.207 109.281 114.981 109.439C112.737 111.015 110.452 112.512 108.127 113.927C107.892 114.07 107.817 114.377 107.96 114.613C105.892 115.86 103.794 117.043 101.666 118.159C101.539 117.915 101.237 117.82 100.993 117.947C98.5636 119.208 96.097 120.383 93.5957 121.467C93.3426 121.577 93.2262 121.87 93.3353 122.124C91.1189 123.073 88.8754 123.952 86.6066 124.758C86.5149 124.498 86.2301 124.361 85.9698 124.452C83.3941 125.355 80.786 126.163 78.1482 126.874C77.8819 126.946 77.7241 127.22 77.7953 127.486C75.4697 128.102 73.1212 128.643 70.7517 129.106C70.6994 128.835 70.4379 128.658 70.1671 128.709C67.4954 129.219 64.7969 129.63 62.0744 129.939C61.8004 129.97 61.6034 130.217 61.6339 130.491C59.251 130.75 56.8498 130.932 54.4321 131.034C54.4211 130.759 54.1893 130.544 53.9137 130.555C52.5512 130.606 51.1835 130.632 49.8108 130.632C48.4381 130.632 47.0704 130.606 45.7079 130.555C45.4323 130.544 45.2005 130.759 45.1895 131.034C42.7718 130.932 40.3707 130.75 37.9878 130.491C38.0182 130.217 37.8212 129.97 37.5472 129.939C34.8247 129.63 32.1263 129.219 29.4545 128.709C29.1837 128.658 28.9222 128.835 28.8699 129.106C26.5004 128.643 24.1519 128.102 21.8264 127.486C21.8975 127.22 21.7397 126.946 21.4735 126.874C18.8356 126.163 16.2276 125.355 13.6518 124.452C13.3916 124.361 13.1067 124.498 13.015 124.758C10.7462 123.952 8.50273 123.073 6.28633 122.124C6.39541 121.87 6.27901 121.577 6.02598 121.467C3.52465 120.383 1.05808 119.208 -1.37109 117.947C-1.61584 117.82 -1.91724 117.915 -2.04479 118.159C-4.17208 117.043 -6.27045 115.86 -8.33818 114.613C-8.19531 114.377 -8.27024 114.07 -8.50583 113.927C-10.8302 112.512 -13.1154 111.015 -15.3591 109.439C-15.5849 109.281 -15.8962 109.335 -16.0551 109.56C-18.0141 108.173 -19.9411 106.726 -21.8344 105.221C-21.6624 105.005 -21.6974 104.691 -21.9126 104.518C-24.0357 102.818 -26.1161 101.043 -28.1515 99.1985C-28.3558 99.0133 -28.6716 99.0286 -28.8571 99.2325C-30.6283 97.6154 -32.365 95.9451 -34.0657 94.2235C-33.8692 94.0301 -33.8664 93.714 -34.0595 93.5171C-35.9624 91.5773 -37.8197 89.5728 -39.6293 87.5062C-39.811 87.2987 -40.1264 87.2776 -40.3342 87.4589C-41.9072 85.6502 -43.4439 83.7946 -44.9426 81.8941C-44.7258 81.7238 -44.6879 81.4099 -44.858 81.1927C-46.5343 79.0526 -48.1627 76.8558 -49.741 74.6048C-49.8994 74.3789 -50.2108 74.324 -50.4368 74.482C-51.8072 72.5143 -53.1395 70.5057 -54.4324 68.458C-54.199 68.3112 -54.1285 68.0029 -54.2751 67.7692C-55.72 65.465 -57.1149 63.1115 -58.458 60.7109C-58.5927 60.4702 -58.897 60.384 -59.1378 60.5183C-60.3027 58.4216 -61.4281 56.2895 -62.5129 54.1235C-62.2661 54.0004 -62.1656 53.7006 -62.2884 53.4536C-63.4984 51.0195 -64.6571 48.543 -65.7624 46.0261C-65.8734 45.7735 -66.1679 45.6585 -66.4206 45.7691C-67.378 43.572 -68.295 41.3446 -69.1703 39.0883C-68.913 38.9889 -68.7848 38.6999 -68.8839 38.4424C-69.8602 35.9045 -70.7838 33.3303 -71.653 30.7217C-71.7402 30.4599 -72.0229 30.3184 -72.2847 30.4052C-73.0362 28.1289 -73.7463 25.8267 -74.414 23.5002C-74.1488 23.4245 -73.9949 23.1482 -74.0703 22.8828C-74.8135 20.2664 -75.5028 17.6193 -76.1368 14.9433C-76.2004 14.6748 -76.4694 14.5086 -76.7379 14.5719C-77.2843 12.2376 -77.7887 9.88165 -78.25 7.50529C-77.9792 7.45309 -77.8017 7.19135 -77.8536 6.92035C-78.3649 4.24876 -78.8217 1.55147 -79.2224 -1.16971C-79.2626 -1.44269 -79.5163 -1.63147 -79.7893 -1.59163C-80.1323 -3.96422 -80.4329 -6.35475 -80.69 -8.76201C-80.4157 -8.79094 -80.2165 -9.03662 -80.2451 -9.31107C-80.527 -12.0164 -80.7538 -14.7428 -80.9242 -17.4885C-80.9413 -17.7639 -81.1782 -17.9734 -81.4536 -17.9566C-81.5959 -20.3494 -81.6955 -22.7566 -81.7514 -25.1772C-81.4756 -25.1832 -81.2567 -25.4115 -81.2624 -25.6873C-81.2905 -27.0549 -81.3047 -28.4267 -81.3047 -29.8026C-81.3047 -31.1785 -81.2905 -32.5503 -81.2624 -33.9179C-81.2567 -34.1938 -81.4756 -34.422 -81.7514 -34.4281C-81.6955 -36.8487 -81.5959 -39.2559 -81.4536 -41.6486C-81.1782 -41.6319 -80.9413 -41.8413 -80.9242 -42.1167C-80.7538 -44.8625 -80.527 -47.5889 -80.2451 -50.2942C-80.2165 -50.5686 -80.4157 -50.8143 -80.69 -50.8432C-80.4329 -53.2505 -80.1323 -55.641 -79.7893 -58.0136C-79.5163 -57.9738 -79.2626 -58.1626 -79.2224 -58.4355C-78.8217 -61.1567 -78.3649 -63.854 -77.8536 -66.5256C-77.8017 -66.7966 -77.9792 -67.0583 -78.25 -67.1105C-77.7887 -69.4869 -77.2843 -71.8429 -76.7379 -74.1771C-76.4694 -74.1139 -76.2004 -74.28 -76.1368 -74.5485C-75.5028 -77.2245 -74.8134 -79.8717 -74.0703 -82.488C-73.9949 -82.7534 -74.1488 -83.0297 -74.414 -83.1054C-73.7463 -85.432 -73.0362 -87.7341 -72.2847 -90.0104C-72.0229 -89.9236 -71.7402 -90.0652 -71.653 -90.327C-70.7838 -92.9355 -69.8602 -95.5098 -68.8839 -98.0476C-68.7848 -98.3051 -68.913 -98.5942 -69.1703 -98.6935C-68.295 -100.95 -67.378 -103.177 -66.4206 -105.374C-66.1679 -105.264 -65.8734 -105.379 -65.7624 -105.631C-64.6571 -108.148 -63.4984 -110.625 -62.2884 -113.059C-62.1656 -113.306 -62.2661 -113.606 -62.5129 -113.729C-61.4281 -115.895 -60.3027 -118.027 -59.1378 -120.124C-58.897 -119.989 -58.5927 -120.075 -58.458 -120.316C-57.115 -122.717 -55.72 -125.07 -54.2751 -127.374C-54.1285 -127.608 -54.199 -127.916 -54.4324 -128.063C-53.1396 -130.111 -51.8072 -132.119 -50.4368 -134.087C-50.2108 -133.929 -49.8994 -133.984 -49.741 -134.21C-48.1627 -136.461 -46.5343 -138.658 -44.858 -140.798C-44.6879 -141.015 -44.7258 -141.329 -44.9426 -141.499C-43.4439 -143.4 -41.9072 -145.255 -40.3342 -147.064C-40.1264 -146.883 -39.811 -146.904 -39.6293 -147.111C-37.8197 -149.178 -35.9624 -151.183 -34.0596 -153.122C-33.8664 -153.319 -33.8692 -153.635 -34.0657 -153.829C-32.365 -155.55 -30.6283 -157.221 -28.8571 -158.838C-28.6716 -158.634 -28.3559 -158.618 -28.1515 -158.804C-26.1161 -160.649 -24.0357 -162.423 -21.9126 -164.124C-21.6974 -164.296 -21.6625 -164.61 -21.8344 -164.826C-19.9411 -166.331 -18.0141 -167.778 -16.0551 -169.166C-15.8962 -168.94 -15.5849 -168.886 -15.3591 -169.044C-13.1154 -170.62 -10.8302 -172.117 -8.50583 -173.532C-8.27024 -173.675 -8.19531 -173.982 -8.33819 -174.218C-6.27045 -175.465 -4.17208 -176.648 -2.04478 -177.764C-1.91722 -177.52 -1.61584 -177.425 -1.37109 -177.552C1.0581 -178.814 3.52466 -179.988 6.02599 -181.072C6.27903 -181.182 6.39542 -181.476 6.28633 -181.729C8.50274 -182.678 10.7462 -183.557 13.015 -184.363C13.1067 -184.103 13.3916 -183.966 13.6518 -184.058C16.2276 -184.96 18.8357 -185.768 21.4735 -186.48C21.7397 -186.551 21.8975 -186.825 21.8264 -187.091C24.1519 -187.707 26.5004 -188.248 28.87 -188.711C28.9222 -188.44 29.1837 -188.263 29.4546 -188.315C32.1263 -188.824 34.8247 -189.235 37.5473 -189.544C37.8213 -189.575 38.0183 -189.822 37.9878 -190.096C40.3707 -190.356 42.7718 -190.537 45.1896 -190.639C45.2005 -190.364 45.4324 -190.149 45.708 -190.16C47.0704 -190.211 48.4382 -190.237 49.8108 -190.237C51.1835 -190.237 52.5512 -190.211 53.9137 -190.16C54.1893 -190.149 54.4211 -190.364 54.4321 -190.639C56.8498 -190.537 59.251 -190.356 61.6339 -190.096C61.6034 -189.822 61.8004 -189.575 62.0744 -189.544C64.797 -189.235 67.4954 -188.824 70.1671 -188.315C70.438 -188.263 70.6995 -188.44 70.7517 -188.711C73.1213 -188.248 75.4697 -187.707 77.7953 -187.091C77.7241 -186.825 77.8819 -186.551 78.1482 -186.48C80.786 -185.768 83.3941 -184.96 85.9698 -184.058C86.2301 -183.966 86.515 -184.103 86.6067 -184.363C88.8754 -183.557 91.1189 -182.678 93.3353 -181.729C93.2262 -181.476 93.3426 -181.182 93.5957 -181.072C96.097 -179.988 98.5636 -178.814 100.993 -177.552C101.238 -177.425 101.539 -177.52 101.666 -177.764C103.794 -176.648 105.892 -175.465 107.96 -174.218C107.817 -173.982 107.892 -173.675 108.127 -173.532C110.452 -172.117 112.737 -170.62 114.981 -169.045C115.206 -168.886 115.518 -168.94 115.677 -169.166C117.636 -167.778 119.563 -166.331 121.456 -164.826C121.284 -164.61 121.319 -164.296 121.534 -164.124C123.657 -162.423 125.738 -160.649 127.773 -158.804C127.977 -158.618 128.293 -158.634 128.479 -158.838C130.25 -157.221 131.987 -155.55 133.687 -153.829C133.491 -153.635 133.488 -153.319 133.681 -153.122C135.584 -151.183 137.441 -149.178 139.251 -147.111C139.433 -146.904 139.748 -146.883 139.956 -147.064C141.529 -145.255 143.066 -143.4 144.564 -141.499C144.347 -141.329 144.309 -141.015 144.48 -140.798C146.156 -138.658 147.784 -136.461 149.363 -134.21C149.521 -133.984 149.832 -133.929 150.058 -134.087C151.429 -132.119 152.761 -130.111 154.054 -128.063C153.821 -127.916 153.75 -127.608 153.897 -127.374C155.342 -125.07 156.737 -122.717 158.08 -120.316C158.214 -120.075 158.519 -119.989 158.759 -120.124C159.924 -118.027 161.05 -115.895 162.134 -113.729C161.888 -113.606 161.787 -113.306 161.91 -113.059C163.12 -110.625 164.279 -108.148 165.384 -105.631C165.495 -105.379 165.79 -105.264 166.042 -105.374C167 -103.177 167.917 -100.95 168.792 -98.6935C168.535 -98.5941 168.406 -98.3051 168.506 -98.0476C169.482 -95.5098 170.405 -92.9355 171.275 -90.3269C171.362 -90.0652 171.645 -89.9236 171.906 -90.0104C172.658 -87.7341 173.368 -85.432 174.036 -83.1054C173.77 -83.0297 173.617 -82.7534 173.692 -82.488C174.435 -79.8717 175.124 -77.2245 175.758 -74.5485C175.822 -74.28 176.091 -74.1138 176.36 -74.1771C176.906 -71.8428 177.41 -69.4869 177.872 -67.1105C177.601 -67.0583 177.423 -66.7966 177.475 -66.5256C177.987 -63.854 178.443 -61.1567 178.844 -58.4355C178.884 -58.1625 179.138 -57.9738 179.411 -58.0136C179.754 -55.641 180.055 -53.2505 180.312 -50.8432C180.037 -50.8143 179.838 -50.5686 179.867 -50.2942C180.149 -47.5888 180.375 -44.8624 180.546 -42.1167C180.563 -41.8413 180.8 -41.6318 181.075 -41.6486Z" stroke="#000080" stroke-opacity="0.5" stroke-linecap="round" stroke-dasharray="8 8"/>
<path d="M193.097 -40.9842C193.216 -38.7365 193.3 -36.4772 193.347 -34.2069C193.071 -34.2015 192.852 -33.9737 192.857 -33.6978C192.881 -32.4028 192.893 -31.1043 192.893 -29.8024C192.893 -28.5006 192.881 -27.2021 192.857 -25.9071C192.852 -25.6312 193.071 -25.4034 193.347 -25.398C193.3 -23.1278 193.216 -20.8684 193.097 -18.6207C192.822 -18.6357 192.586 -18.4247 192.571 -18.1491C192.427 -15.5527 192.235 -12.972 191.997 -10.4083C191.971 -10.1336 192.173 -9.89011 192.448 -9.86426C192.232 -7.60468 191.981 -5.35834 191.693 -3.12613C191.42 -3.16167 191.169 -2.96892 191.133 -2.69533C190.795 -0.117783 190.41 2.44073 189.978 4.97891C189.932 5.25095 190.114 5.50899 190.386 5.55557C190 7.79434 189.577 10.0172 189.119 12.2233C188.849 12.167 188.585 12.34 188.528 12.61C187.993 15.1558 187.411 17.679 186.784 20.1782C186.716 20.4458 186.879 20.7172 187.146 20.7847C186.587 22.9861 185.993 25.1689 185.364 27.332C185.099 27.2546 184.822 27.4063 184.744 27.6711C184.011 30.1664 183.232 32.6352 182.408 35.0762C182.32 35.3376 182.46 35.6211 182.722 35.7096C181.99 37.8593 181.223 39.9872 180.422 42.0925C180.164 41.994 179.876 42.1229 179.777 42.3806C178.846 44.8083 177.87 47.2055 176.849 49.5706C176.74 49.824 176.856 50.1179 177.109 50.2275C176.204 52.31 175.265 54.3674 174.292 56.3988C174.043 56.2793 173.745 56.3838 173.625 56.6323C172.496 58.974 171.322 61.2808 170.106 63.5508C169.975 63.794 170.067 64.0967 170.31 64.2274C169.231 66.2256 168.12 68.1954 166.976 70.1355C166.739 69.9951 166.432 70.0734 166.291 70.3107C164.965 72.5461 163.595 74.7416 162.184 76.8956C162.032 77.1264 162.097 77.436 162.327 77.5875C161.077 79.4829 159.795 81.346 158.481 83.1756C158.258 83.0144 157.946 83.0648 157.784 83.2885C156.262 85.395 154.698 87.4565 153.095 89.4712C152.923 89.687 152.958 90.0012 153.174 90.1733C151.754 91.945 150.304 93.6804 148.823 95.3781C148.616 95.1965 148.3 95.2172 148.118 95.4246C146.405 97.3771 144.651 99.2791 142.86 101.129C142.668 101.327 142.672 101.643 142.87 101.835C141.286 103.46 139.672 105.044 138.029 106.586C137.841 106.385 137.525 106.374 137.323 106.562C135.424 108.333 133.488 110.047 131.515 111.703C131.304 111.881 131.276 112.195 131.453 112.407C129.71 113.859 127.94 115.267 126.143 116.627C125.977 116.407 125.664 116.363 125.443 116.529C123.37 118.087 121.261 119.583 119.119 121.015C118.889 121.168 118.827 121.478 118.98 121.708C117.091 122.96 115.176 124.163 113.237 125.315C113.096 125.078 112.79 124.999 112.552 125.139C110.32 126.453 108.055 127.699 105.76 128.875C105.514 129.001 105.417 129.302 105.542 129.547C103.523 130.572 101.48 131.543 99.415 132.458C99.3038 132.206 99.0093 132.091 98.7567 132.202C96.3879 133.241 93.99 134.207 91.5649 135.097C91.306 135.192 91.1729 135.478 91.2674 135.737C89.142 136.508 86.9957 137.22 84.83 137.874C84.7509 137.61 84.4729 137.46 84.2085 137.538C81.7349 138.274 79.236 138.932 76.7136 139.51C76.4448 139.571 76.2767 139.839 76.3377 140.108C74.1365 140.603 71.9176 141.038 69.6822 141.41C69.6375 141.138 69.3809 140.954 69.1087 140.998C66.5677 141.411 64.0056 141.743 61.4241 141.993C61.1496 142.019 60.9485 142.263 60.9745 142.538C58.7327 142.745 56.4765 142.891 54.207 142.973C54.1976 142.698 53.9669 142.482 53.6913 142.491C52.4003 142.532 51.1051 142.553 49.8058 142.553C48.5065 142.553 47.2113 142.532 45.9203 142.491C45.6447 142.482 45.414 142.698 45.4046 142.973C43.1351 142.891 40.8789 142.745 38.6371 142.538C38.6631 142.263 38.462 142.019 38.1875 141.993C35.606 141.743 33.0439 141.411 30.5029 140.998C30.2307 140.954 29.9741 141.138 29.9294 141.41C27.694 141.038 25.4751 140.603 23.2739 140.108C23.3349 139.839 23.1668 139.571 22.898 139.51C20.3756 138.932 17.8767 138.274 15.4031 137.538C15.1387 137.46 14.8607 137.61 14.7816 137.874C12.6159 137.22 10.4696 136.508 8.34417 135.737C8.43864 135.478 8.30563 135.192 8.04671 135.097C5.62156 134.207 3.22366 133.241 0.854889 132.202C0.602303 132.091 0.307785 132.206 0.196571 132.458C-1.86852 131.543 -3.91129 130.572 -5.93054 129.547C-5.80528 129.302 -5.9025 129.001 -6.14799 128.875C-8.44357 127.699 -10.7085 126.453 -12.9409 125.139C-13.1786 124.999 -13.4847 125.078 -13.625 125.315C-15.5647 124.163 -17.4797 122.96 -19.3687 121.708C-19.2159 121.478 -19.2777 121.168 -19.5071 121.015C-21.6496 119.583 -23.7585 118.087 -25.8319 116.529C-26.0524 116.363 -26.3655 116.407 -26.5315 116.627C-28.3286 115.267 -30.0989 113.859 -31.8413 112.407C-31.6643 112.195 -31.692 111.881 -31.9033 111.703C-33.8761 110.047 -35.8127 108.333 -37.7113 106.562C-37.9131 106.374 -38.2291 106.385 -38.4175 106.586C-40.0601 105.044 -41.6742 103.46 -43.2586 101.835C-43.0608 101.643 -43.056 101.327 -43.248 101.129C-45.0399 99.2791 -46.7934 97.3771 -48.5069 95.4246C-48.6889 95.2172 -49.0043 95.1965 -49.2119 95.3781C-50.6924 93.6804 -52.1429 91.945 -53.5622 90.1733C-53.3467 90.0012 -53.3112 89.687 -53.483 89.4712C-55.0868 87.4565 -56.6505 85.395 -58.1724 83.2885C-58.334 83.0648 -58.6461 83.0144 -58.8699 83.1756C-60.1835 81.346 -61.4658 79.4829 -62.7157 77.5875C-62.4852 77.436 -62.4209 77.1264 -62.5721 76.8956C-63.9836 74.7416 -65.3534 72.5461 -66.6799 70.3107C-66.8207 70.0734 -67.1271 69.9951 -67.3645 70.1355C-68.5084 68.1953 -69.6199 66.2256 -70.698 64.2274C-70.4551 64.0967 -70.3638 63.794 -70.4941 63.5508C-71.7108 61.2808 -72.8844 58.974 -74.0135 56.6323C-74.1334 56.3838 -74.4319 56.2793 -74.6805 56.3988C-75.6532 54.3674 -76.5926 52.31 -77.4978 50.2276C-77.2446 50.1179 -77.1281 49.824 -77.2374 49.5706C-78.2579 47.2055 -79.2343 44.8083 -80.1652 42.3806C-80.264 42.1229 -80.5528 41.9941 -80.8105 42.0925C-81.6114 39.9873 -82.3782 37.8593 -83.11 35.7097C-82.8488 35.6211 -82.7086 35.3377 -82.7968 35.0762C-83.6208 32.6353 -84.3997 30.1664 -85.1323 27.6711C-85.21 27.4064 -85.4875 27.2547 -85.7523 27.332C-86.3813 25.1689 -86.9757 22.9862 -87.5345 20.7848C-87.267 20.7173 -87.1047 20.4458 -87.172 20.1782C-87.7997 17.679 -88.3815 15.1558 -88.9164 12.6101C-88.9731 12.34 -89.2378 12.167 -89.5079 12.2234C-89.9656 10.0173 -90.3881 7.7944 -90.7747 5.55563C-90.5028 5.50905 -90.32 5.25101 -90.3662 4.97897C-90.7981 2.44081 -91.1836 -0.117706 -91.5216 -2.69525C-91.5575 -2.96884 -91.8082 -3.16161 -92.0818 -3.12605C-92.369 -5.35826 -92.6208 -7.6046 -92.8364 -9.86418C-92.5617 -9.89006 -92.3599 -10.1335 -92.3854 -10.4083C-92.6238 -12.9719 -92.8154 -15.5526 -92.9593 -18.1491C-92.9746 -18.4246 -93.2102 -18.6356 -93.4856 -18.6207C-93.6049 -20.8683 -93.6884 -23.1277 -93.7355 -25.3979C-93.4597 -25.4033 -93.2403 -25.6311 -93.2454 -25.907C-93.2693 -27.202 -93.2812 -28.5005 -93.2812 -29.8024C-93.2812 -31.1043 -93.2693 -32.4028 -93.2454 -33.6978C-93.2403 -33.9737 -93.4597 -34.2015 -93.7355 -34.2069C-93.6884 -36.4771 -93.6049 -38.7364 -93.4856 -40.9841C-93.2102 -40.9692 -92.9746 -41.1802 -92.9593 -41.4557C-92.8154 -44.0522 -92.6238 -46.6329 -92.3854 -49.1965C-92.3599 -49.4713 -92.5617 -49.7147 -92.8364 -49.7406C-92.6208 -52.0002 -92.369 -54.2465 -92.0818 -56.4787C-91.8082 -56.4432 -91.5575 -56.6359 -91.5216 -56.9095C-91.1836 -59.4871 -90.7981 -62.0456 -90.3663 -64.5838C-90.32 -64.8558 -90.5028 -65.1138 -90.7747 -65.1604C-90.3881 -67.3992 -89.9656 -69.6221 -89.5079 -71.8282C-89.2378 -71.7718 -88.9731 -71.9448 -88.9164 -72.2149C-88.3815 -74.7606 -87.7997 -77.2838 -87.172 -79.783C-87.1048 -80.0506 -87.2671 -80.3221 -87.5345 -80.3896C-86.9757 -82.591 -86.3814 -84.7737 -85.7523 -86.9368C-85.4875 -86.8595 -85.21 -87.0112 -85.1323 -87.2759C-84.3998 -89.7712 -83.6209 -92.2401 -82.7968 -94.6811C-82.7086 -94.9425 -82.8488 -95.2259 -83.11 -95.3145C-82.3782 -97.4641 -81.6114 -99.5921 -80.8105 -101.697C-80.5528 -101.599 -80.264 -101.728 -80.1652 -101.985C-79.2343 -104.413 -78.258 -106.81 -77.2374 -109.175C-77.1281 -109.429 -77.2447 -109.723 -77.4978 -109.832C-76.5926 -111.915 -75.6532 -113.972 -74.6805 -116.004C-74.4319 -115.884 -74.1334 -115.989 -74.0135 -116.237C-72.8844 -118.579 -71.7108 -120.886 -70.4941 -123.156C-70.3638 -123.399 -70.4551 -123.702 -70.698 -123.832C-69.6199 -125.83 -68.5084 -127.8 -67.3645 -129.74C-67.1271 -129.6 -66.8207 -129.678 -66.6799 -129.916C-65.3534 -132.151 -63.9836 -134.347 -62.5721 -136.5C-62.4209 -136.731 -62.4852 -137.041 -62.7157 -137.192C-61.4658 -139.088 -60.1835 -140.951 -58.8699 -142.78C-58.6461 -142.619 -58.334 -142.67 -58.1724 -142.893C-56.6505 -145 -55.0868 -147.061 -53.483 -149.076C-53.3112 -149.292 -53.3466 -149.606 -53.5622 -149.778C-52.1429 -151.55 -50.6924 -153.285 -49.2119 -154.983C-49.0044 -154.801 -48.6889 -154.822 -48.5069 -155.029C-46.7934 -156.982 -45.0399 -158.884 -43.248 -160.733C-43.056 -160.932 -43.0609 -161.248 -43.2586 -161.44C-41.6742 -163.065 -40.0601 -164.649 -38.4175 -166.191C-38.2291 -165.99 -37.9131 -165.979 -37.7114 -166.167C-35.8127 -167.938 -33.8761 -169.652 -31.9033 -171.308C-31.692 -171.485 -31.6643 -171.8 -31.8413 -172.012C-30.099 -173.464 -28.3287 -174.871 -26.5315 -176.232C-26.3655 -176.012 -26.0525 -175.968 -25.8319 -176.134C-23.7585 -177.692 -21.6496 -179.188 -19.5071 -180.62C-19.2778 -180.773 -19.2159 -181.083 -19.3687 -181.313C-17.4797 -182.565 -15.5647 -183.768 -13.625 -184.92C-13.4847 -184.682 -13.1786 -184.603 -12.941 -184.743C-10.7085 -186.058 -8.44361 -187.304 -6.14803 -188.48C-5.90254 -188.606 -5.80532 -188.907 -5.93058 -189.152C-3.91134 -190.177 -1.86855 -191.148 0.196526 -192.063C0.307739 -191.811 0.602257 -191.696 0.854851 -191.807C3.22362 -192.846 5.62151 -193.811 8.04665 -194.701C8.30558 -194.796 8.43859 -195.083 8.34412 -195.342C10.4696 -196.113 12.6158 -196.825 14.7816 -197.479C14.8607 -197.215 15.1387 -197.064 15.403 -197.143C17.8767 -197.879 20.3756 -198.536 22.8979 -199.115C23.1668 -199.176 23.3349 -199.444 23.2738 -199.713C25.475 -200.208 27.6939 -200.642 29.9293 -201.015C29.9741 -200.743 30.2306 -200.558 30.5028 -200.603C33.0438 -201.015 35.606 -201.348 38.1875 -201.598C38.462 -201.624 38.6631 -201.868 38.6371 -202.143C40.8789 -202.35 43.1351 -202.496 45.4045 -202.578C45.4139 -202.303 45.6446 -202.087 45.9203 -202.095C47.2112 -202.137 48.5065 -202.158 49.8058 -202.158C51.105 -202.158 52.4003 -202.137 53.6912 -202.095C53.9668 -202.087 54.1976 -202.303 54.207 -202.578C56.4764 -202.496 58.7326 -202.35 60.9744 -202.143C60.9484 -201.868 61.1495 -201.624 61.424 -201.598C64.0055 -201.348 66.5677 -201.015 69.1086 -200.603C69.3809 -200.558 69.6374 -200.743 69.6822 -201.015C71.9175 -200.642 74.1364 -200.208 76.3377 -199.713C76.2766 -199.444 76.4447 -199.176 76.7135 -199.115C79.2359 -198.536 81.7348 -197.879 84.2085 -197.143C84.4728 -197.064 84.7508 -197.215 84.8299 -197.479C86.9957 -196.825 89.1419 -196.113 91.2674 -195.342C91.1729 -195.083 91.3059 -194.796 91.5648 -194.701C93.99 -193.811 96.3879 -192.846 98.7567 -191.807C99.0092 -191.696 99.3038 -191.811 99.415 -192.063C101.48 -191.148 103.523 -190.177 105.542 -189.152C105.417 -188.907 105.514 -188.606 105.76 -188.48C108.055 -187.304 110.32 -186.058 112.552 -184.743C112.79 -184.604 113.096 -184.683 113.237 -184.92C115.176 -183.768 117.091 -182.565 118.98 -181.313C118.827 -181.083 118.889 -180.773 119.119 -180.62C121.261 -179.188 123.37 -177.692 125.443 -176.134C125.664 -175.968 125.977 -176.012 126.143 -176.232C127.94 -174.871 129.71 -173.464 131.453 -172.012C131.276 -171.8 131.304 -171.485 131.515 -171.308C133.488 -169.652 135.424 -167.938 137.323 -166.167C137.525 -165.979 137.841 -165.99 138.029 -166.191C139.672 -164.649 141.286 -163.065 142.87 -161.44C142.672 -161.248 142.668 -160.932 142.86 -160.734C144.651 -158.884 146.405 -156.982 148.118 -155.029C148.3 -154.822 148.616 -154.801 148.823 -154.983C150.304 -153.285 151.754 -151.55 153.174 -149.778C152.958 -149.606 152.923 -149.292 153.095 -149.076C154.698 -147.061 156.262 -145 157.784 -142.893C157.946 -142.67 158.258 -142.619 158.481 -142.78C159.795 -140.951 161.077 -139.088 162.327 -137.192C162.097 -137.041 162.032 -136.731 162.184 -136.5C163.595 -134.347 164.965 -132.151 166.291 -129.916C166.432 -129.678 166.739 -129.6 166.976 -129.74C168.12 -127.8 169.231 -125.83 170.31 -123.832C170.067 -123.702 169.975 -123.399 170.106 -123.156C171.322 -120.886 172.496 -118.579 173.625 -116.237C173.745 -115.989 174.043 -115.884 174.292 -116.004C175.265 -113.972 176.204 -111.915 177.109 -109.832C176.856 -109.723 176.74 -109.429 176.849 -109.175C177.869 -106.81 178.846 -104.413 179.777 -101.985C179.876 -101.728 180.164 -101.599 180.422 -101.697C181.223 -99.5921 181.99 -97.4642 182.722 -95.3145C182.46 -95.226 182.32 -94.9425 182.408 -94.6811C183.232 -92.2401 184.011 -89.7713 184.744 -87.276C184.822 -87.0112 185.099 -86.8595 185.364 -86.9369C185.993 -84.7738 186.587 -82.5911 187.146 -80.3897C186.879 -80.3221 186.716 -80.0507 186.784 -79.7831C187.411 -77.2839 187.993 -74.7607 188.528 -72.2149C188.585 -71.9449 188.849 -71.7719 189.119 -71.8283C189.577 -69.6222 190 -67.3993 190.386 -65.1605C190.114 -65.1139 189.931 -64.8559 189.978 -64.5838C190.41 -62.0457 190.795 -59.4872 191.133 -56.9096C191.169 -56.636 191.42 -56.4433 191.693 -56.4788C191.981 -54.2466 192.232 -52.0003 192.448 -49.7407C192.173 -49.7148 191.971 -49.4714 191.997 -49.1966C192.235 -46.6329 192.427 -44.0522 192.571 -41.4558C192.586 -41.1803 192.822 -40.9693 193.097 -40.9842Z" stroke="#000080" stroke-opacity="0.5" stroke-linecap="round" stroke-dasharray="8 8"/>
<path d="M205.08 -41.1231C205.196 -38.8444 205.277 -36.5545 205.323 -34.2542C205.047 -34.249 204.827 -34.0214 204.832 -33.7455C204.855 -32.4345 204.867 -31.1201 204.867 -29.8026C204.867 -28.485 204.855 -27.1706 204.832 -25.8596C204.827 -25.5837 205.047 -25.3561 205.323 -25.3509C205.277 -23.0506 205.196 -20.7607 205.08 -18.482C204.804 -18.4963 204.569 -18.2848 204.555 -18.0092C204.415 -15.3828 204.229 -12.7714 203.998 -10.176C203.974 -9.90117 204.176 -9.65848 204.451 -9.63368C204.242 -7.34186 203.997 -5.06262 203.718 -2.79674C203.444 -2.8308 203.194 -2.63667 203.16 -2.36288C202.831 0.249741 202.457 2.84441 202.038 5.41995C201.993 5.69229 202.178 5.94907 202.45 5.99373C202.075 8.26505 201.664 10.5214 201.22 12.7621C200.949 12.7081 200.686 12.8834 200.632 13.1539C200.113 15.7336 199.549 18.2923 198.941 20.8286C198.876 21.0969 199.041 21.3666 199.31 21.4313C198.767 23.6673 198.191 25.8859 197.58 28.0863C197.314 28.0122 197.039 28.1673 196.964 28.4331C196.255 30.9657 195.501 33.4738 194.703 35.9562C194.618 36.2189 194.762 36.5003 195.025 36.5851C194.316 38.773 193.572 40.9408 192.795 43.0877C192.536 42.9935 192.25 43.1271 192.155 43.3864C191.254 45.8567 190.31 48.2989 189.322 50.7116C189.217 50.9669 189.34 51.2587 189.595 51.3635C188.718 53.49 187.808 55.5935 186.865 57.6732C186.614 57.5589 186.318 57.6697 186.203 57.9207C185.111 60.3143 183.975 62.6758 182.798 65.0039C182.673 65.2502 182.771 65.5506 183.017 65.6755C181.973 67.7264 180.897 69.7513 179.788 71.7491C179.547 71.615 179.243 71.7014 179.108 71.9423C177.826 74.2388 176.502 76.4992 175.137 78.7218C174.992 78.957 175.066 79.2646 175.301 79.4092C174.091 81.3667 172.85 83.2947 171.578 85.1924C171.349 85.0386 171.039 85.0992 170.885 85.3279C169.415 87.5081 167.904 89.6478 166.354 91.7452C166.19 91.9671 166.237 92.2798 166.459 92.4441C165.086 94.2903 163.683 96.1038 162.251 97.8832C162.036 97.71 161.722 97.7432 161.548 97.9576C159.894 100 158.201 101.998 156.469 103.948C156.286 104.155 156.305 104.47 156.511 104.654C154.979 106.369 153.418 108.049 151.829 109.69C151.631 109.498 151.315 109.502 151.122 109.7C149.289 111.582 147.418 113.414 145.512 115.194C145.31 115.382 145.299 115.698 145.487 115.9C143.802 117.464 142.088 118.987 140.348 120.469C140.17 120.259 139.855 120.233 139.644 120.411C137.64 122.107 135.6 123.748 133.527 125.331C133.308 125.499 133.265 125.812 133.432 126.032C131.602 127.42 129.745 128.765 127.863 130.064C127.707 129.837 127.396 129.779 127.169 129.935C125.005 131.419 122.808 132.841 120.58 134.202C120.345 134.346 120.27 134.653 120.414 134.889C118.45 136.079 116.462 137.221 114.452 138.314C114.32 138.071 114.017 137.98 113.775 138.111C111.468 139.354 109.132 140.532 106.766 141.643C106.517 141.76 106.409 142.058 106.526 142.307C104.447 143.275 102.345 144.191 100.223 145.054C100.12 144.798 99.8288 144.675 99.5729 144.778C97.146 145.755 94.6922 146.662 92.2131 147.498C91.9517 147.586 91.8111 147.869 91.8988 148.13C89.7256 148.854 87.5333 149.523 85.3228 150.136C85.2496 149.871 84.9749 149.714 84.7088 149.787C82.19 150.476 79.6477 151.091 77.0837 151.632C76.8138 151.689 76.641 151.954 76.6974 152.223C74.4582 152.687 72.2025 153.094 69.9314 153.442C69.8901 153.169 69.6358 152.982 69.3631 153.022C66.7857 153.408 64.1887 153.718 61.5736 153.951C61.2989 153.976 61.0959 154.218 61.1199 154.493C58.8456 154.687 56.5577 154.823 54.2573 154.9C54.2486 154.624 54.0185 154.407 53.7428 154.416C52.4353 154.454 51.1239 154.474 49.8085 154.474C48.4932 154.474 47.1818 154.454 45.8743 154.416C45.5986 154.407 45.3684 154.624 45.3598 154.9C43.0594 154.823 40.7715 154.687 38.4972 154.493C38.5212 154.218 38.3182 153.976 38.0435 153.951C35.4284 153.718 32.8314 153.408 30.254 153.022C29.9812 152.982 29.727 153.169 29.6857 153.442C27.4146 153.094 25.1589 152.687 22.9196 152.223C22.9761 151.954 22.8033 151.689 22.5334 151.632C19.9694 151.091 17.4271 150.476 14.9082 149.787C14.6422 149.714 14.3675 149.871 14.2943 150.136C12.0838 149.523 9.89146 148.854 7.71831 148.13C7.80593 147.869 7.66535 147.586 7.40397 147.498C4.92494 146.662 2.47114 145.755 0.0442352 144.778C-0.211662 144.675 -0.502556 144.798 -0.605957 145.054C-2.72804 144.191 -4.82941 143.275 -6.909 142.307C-6.79221 142.058 -6.89972 141.76 -7.1494 141.643C-9.51442 140.532 -11.851 139.354 -14.1576 138.111C-14.4004 137.98 -14.7033 138.071 -14.8345 138.314C-16.8452 137.221 -18.833 136.079 -20.7966 134.889C-20.6533 134.653 -20.7278 134.346 -20.9632 134.202C-23.1911 132.841 -25.3877 131.419 -27.5515 129.935C-27.779 129.779 -28.0898 129.837 -28.2461 130.064C-30.1279 128.765 -31.9847 127.421 -33.8153 126.032C-33.6483 125.812 -33.6904 125.499 -33.9097 125.331C-35.9831 123.748 -38.0228 122.107 -40.0271 120.411C-40.2377 120.232 -40.5528 120.259 -40.7313 120.469C-42.4713 118.987 -44.1846 117.464 -45.87 115.9C-45.6821 115.698 -45.6931 115.382 -45.8948 115.194C-47.8014 113.414 -49.672 111.582 -51.5053 109.7C-51.6978 109.502 -52.0139 109.498 -52.2118 109.69C-53.8011 108.049 -55.3621 106.369 -56.8938 104.654C-56.6878 104.47 -56.6692 104.155 -56.8523 103.948C-58.5835 101.998 -60.2769 100 -61.931 97.9576C-62.1047 97.7432 -62.4191 97.71 -62.6337 97.8832C-64.0663 96.1038 -65.4692 94.2903 -66.8416 92.4441C-66.62 92.2798 -66.5733 91.9671 -66.7372 91.7452C-68.2873 89.6478 -69.7979 87.5081 -71.2677 85.3279C-71.4219 85.0992 -71.7323 85.0386 -71.9612 85.1925C-73.2331 83.2948 -74.4742 81.3667 -75.6836 79.4092C-75.4487 79.2646 -75.3753 78.957 -75.5197 78.7219C-76.8848 76.4992 -78.2091 74.2388 -79.4912 71.9423C-79.6257 71.7014 -79.9299 71.615 -80.1709 71.7491C-81.2794 69.7513 -82.3562 67.7265 -83.4003 65.6755C-83.1543 65.5507 -83.0559 65.2502 -83.1804 65.0039C-84.3581 62.6759 -85.4937 60.3143 -86.5861 57.9207C-86.7006 57.6697 -86.9969 57.559 -87.2479 57.6732C-88.1907 55.5935 -89.1008 53.49 -89.9776 51.3635C-89.7224 51.2587 -89.6003 50.967 -89.7049 50.7116C-90.6926 48.2989 -91.6374 45.8567 -92.5379 43.3864C-92.6324 43.1271 -92.9191 42.9935 -93.1784 43.0877C-93.9551 40.9408 -94.6985 38.773 -95.4078 36.5851C-95.1453 36.5003 -95.001 36.2189 -95.0855 35.9562C-95.8837 33.4739 -96.638 30.9657 -97.3473 28.4331C-97.4217 28.1674 -97.6973 28.0122 -97.9631 28.0863C-98.5737 25.886 -99.1504 23.6673 -99.6925 21.4313C-99.4243 21.3667 -99.2592 21.0969 -99.3235 20.8286C-99.9321 18.2923 -100.496 15.7337 -101.014 13.154C-101.069 12.8834 -101.332 12.7081 -101.603 12.7621C-102.047 10.5215 -102.458 8.26509 -102.833 5.99377C-102.561 5.94913 -102.376 5.69234 -102.421 5.42C-102.84 2.84445 -103.214 0.249771 -103.543 -2.36285C-103.577 -2.63666 -103.827 -2.83078 -104.1 -2.79671C-104.38 -5.06259 -104.625 -7.34183 -104.834 -9.63365C-104.559 -9.65843 -104.356 -9.90112 -104.381 -10.176C-104.612 -12.7713 -104.798 -15.3828 -104.938 -18.0092C-104.952 -18.2847 -105.187 -18.4963 -105.463 -18.482C-105.579 -20.7607 -105.66 -23.0506 -105.706 -25.3509C-105.43 -25.3561 -105.21 -25.5837 -105.215 -25.8596C-105.238 -27.1706 -105.25 -28.485 -105.25 -29.8026C-105.25 -31.1201 -105.238 -32.4345 -105.215 -33.7455C-105.21 -34.0214 -105.43 -34.249 -105.706 -34.2542C-105.66 -36.5545 -105.579 -38.8444 -105.463 -41.1231C-105.187 -41.1088 -104.952 -41.3203 -104.938 -41.5959C-104.798 -44.2223 -104.612 -46.8337 -104.381 -49.4291C-104.356 -49.7039 -104.559 -49.9466 -104.834 -49.9714C-104.625 -52.2632 -104.38 -54.5425 -104.1 -56.8084C-103.827 -56.7743 -103.577 -56.9684 -103.543 -57.2422C-103.214 -59.8548 -102.84 -62.4495 -102.421 -65.0251C-102.376 -65.2974 -102.561 -65.5542 -102.833 -65.5988C-102.458 -67.8701 -102.047 -70.1265 -101.603 -72.3672C-101.332 -72.3132 -101.069 -72.4885 -101.014 -72.759C-100.496 -75.3387 -99.9321 -77.8974 -99.3236 -80.4337C-99.2592 -80.702 -99.4243 -80.9717 -99.6925 -81.0364C-99.1504 -83.2724 -98.5737 -85.491 -97.9631 -87.6914C-97.6973 -87.6173 -97.4218 -87.7724 -97.3473 -88.0382C-96.638 -90.5708 -95.8837 -93.0789 -95.0855 -95.5613C-95.001 -95.824 -95.1453 -96.1054 -95.4079 -96.1902C-94.6985 -98.3781 -93.9551 -100.546 -93.1784 -102.693C-92.9191 -102.599 -92.6325 -102.732 -92.5379 -102.991C-91.6374 -105.462 -90.6926 -107.904 -89.7049 -110.317C-89.6003 -110.572 -89.7224 -110.864 -89.9776 -110.969C-89.1008 -113.095 -88.1907 -115.199 -87.248 -117.278C-86.9969 -117.164 -86.7006 -117.275 -86.5861 -117.526C-85.4937 -119.919 -84.3581 -122.281 -83.1804 -124.609C-83.0559 -124.855 -83.1543 -125.156 -83.4003 -125.281C-82.3562 -127.332 -81.2795 -129.356 -80.1709 -131.354C-79.9299 -131.22 -79.6257 -131.306 -79.4912 -131.547C-78.2091 -133.844 -76.8848 -136.104 -75.5197 -138.327C-75.3753 -138.562 -75.4487 -138.87 -75.6836 -139.014C-74.4742 -140.972 -73.2331 -142.9 -71.9612 -144.798C-71.7323 -144.644 -71.4219 -144.704 -71.2677 -144.933C-69.7979 -147.113 -68.2873 -149.253 -66.7372 -151.35C-66.5733 -151.572 -66.62 -151.885 -66.8416 -152.049C-65.4692 -153.895 -64.0663 -155.709 -62.6337 -157.488C-62.4191 -157.315 -62.1046 -157.348 -61.931 -157.563C-60.2769 -159.606 -58.5835 -161.603 -56.8523 -163.553C-56.6692 -163.76 -56.6878 -164.075 -56.8938 -164.259C-55.3621 -165.974 -53.8011 -167.654 -52.2118 -169.295C-52.0139 -169.103 -51.6978 -169.107 -51.5053 -169.305C-49.672 -171.187 -47.8014 -173.019 -45.8948 -174.799C-45.6931 -174.987 -45.6821 -175.303 -45.87 -175.505C-44.1846 -177.069 -42.4714 -178.592 -40.7313 -180.074C-40.5528 -179.864 -40.2377 -179.838 -40.0271 -180.016C-38.0228 -181.712 -35.9831 -183.353 -33.9097 -184.936C-33.6905 -185.104 -33.6483 -185.417 -33.8153 -185.637C-31.9847 -187.026 -30.1279 -188.37 -28.2461 -189.669C-28.0898 -189.442 -27.779 -189.384 -27.5515 -189.54C-25.3877 -191.024 -23.1911 -192.447 -20.9632 -193.807C-20.7278 -193.951 -20.6533 -194.258 -20.7966 -194.494C-18.833 -195.684 -16.8452 -196.826 -14.8345 -197.919C-14.7033 -197.676 -14.4004 -197.586 -14.1576 -197.716C-11.851 -198.96 -9.51441 -200.137 -7.14939 -201.248C-6.89971 -201.365 -6.79221 -201.663 -6.90899 -201.912C-4.82941 -202.88 -2.72803 -203.796 -0.605957 -204.659C-0.502556 -204.404 -0.211655 -204.28 0.0442352 -204.383C2.47114 -205.36 4.92495 -206.267 7.40398 -207.103C7.66536 -207.191 7.80594 -207.474 7.71832 -207.735C9.89146 -208.459 12.0838 -209.128 14.2943 -209.742C14.3675 -209.476 14.6422 -209.319 14.9082 -209.392C17.4271 -210.081 19.9694 -210.696 22.5334 -211.237C22.8033 -211.294 22.9761 -211.559 22.9196 -211.829C25.1589 -212.292 27.4146 -212.699 29.6857 -213.047C29.727 -212.774 29.9812 -212.587 30.254 -212.627C32.8314 -213.013 35.4284 -213.323 38.0435 -213.556C38.3182 -213.581 38.5212 -213.823 38.4972 -214.098C40.7715 -214.292 43.0594 -214.428 45.3598 -214.505C45.3685 -214.229 45.5986 -214.013 45.8743 -214.021C47.1818 -214.059 48.4932 -214.079 49.8085 -214.079C51.1239 -214.079 52.4353 -214.059 53.7428 -214.021C54.0185 -214.013 54.2487 -214.229 54.2573 -214.505C56.5577 -214.428 58.8456 -214.292 61.1199 -214.098C61.0959 -213.823 61.2989 -213.581 61.5736 -213.556C64.1887 -213.323 66.7857 -213.013 69.3631 -212.627C69.6358 -212.587 69.8901 -212.774 69.9314 -213.047C72.2025 -212.699 74.4582 -212.292 76.6974 -211.829C76.641 -211.559 76.8138 -211.294 77.0837 -211.237C79.6477 -210.696 82.19 -210.081 84.7088 -209.392C84.9749 -209.319 85.2496 -209.476 85.3228 -209.742C87.5333 -209.128 89.7256 -208.459 91.8988 -207.735C91.8112 -207.474 91.9517 -207.191 92.2131 -207.103C94.6922 -206.267 97.146 -205.36 99.5729 -204.383C99.8288 -204.28 100.12 -204.404 100.223 -204.659C102.345 -203.796 104.447 -202.88 106.526 -201.912C106.409 -201.663 106.517 -201.365 106.766 -201.248C109.132 -200.137 111.468 -198.96 113.775 -197.716C114.017 -197.586 114.32 -197.676 114.452 -197.919C116.462 -196.826 118.45 -195.684 120.414 -194.494C120.27 -194.258 120.345 -193.951 120.58 -193.807C122.808 -192.447 125.005 -191.024 127.169 -189.54C127.396 -189.384 127.707 -189.442 127.863 -189.669C129.745 -188.37 131.602 -187.026 133.432 -185.637C133.265 -185.417 133.308 -185.104 133.527 -184.936C135.6 -183.353 137.64 -181.712 139.644 -180.016C139.855 -179.838 140.17 -179.864 140.348 -180.074C142.088 -178.592 143.802 -177.069 145.487 -175.505C145.299 -175.303 145.31 -174.987 145.512 -174.799C147.418 -173.019 149.289 -171.187 151.122 -169.305C151.315 -169.107 151.631 -169.103 151.829 -169.295C153.418 -167.654 154.979 -165.975 156.511 -164.259C156.305 -164.075 156.286 -163.76 156.469 -163.553C158.201 -161.603 159.894 -159.606 161.548 -157.563C161.722 -157.348 162.036 -157.315 162.251 -157.488C163.683 -155.709 165.086 -153.895 166.459 -152.049C166.237 -151.885 166.19 -151.572 166.354 -151.35C167.904 -149.253 169.415 -147.113 170.885 -144.933C171.039 -144.704 171.349 -144.644 171.578 -144.798C172.85 -142.9 174.091 -140.972 175.301 -139.014C175.066 -138.87 174.992 -138.562 175.137 -138.327C176.502 -136.104 177.826 -133.844 179.108 -131.547C179.243 -131.306 179.547 -131.22 179.788 -131.354C180.897 -129.356 181.973 -127.332 183.017 -125.281C182.771 -125.156 182.673 -124.855 182.798 -124.609C183.975 -122.281 185.111 -119.919 186.203 -117.526C186.318 -117.275 186.614 -117.164 186.865 -117.278C187.808 -115.199 188.718 -113.095 189.595 -110.969C189.34 -110.864 189.217 -110.572 189.322 -110.317C190.31 -107.904 191.254 -105.462 192.155 -102.992C192.25 -102.732 192.536 -102.599 192.795 -102.693C193.572 -100.546 194.316 -98.3781 195.025 -96.1902C194.762 -96.1054 194.618 -95.824 194.703 -95.5613C195.501 -93.079 196.255 -90.5708 196.964 -88.0382C197.039 -87.7725 197.314 -87.6173 197.58 -87.6914C198.191 -85.4911 198.767 -83.2725 199.31 -81.0364C199.041 -80.9718 198.876 -80.702 198.941 -80.4337C199.549 -77.8974 200.113 -75.3388 200.632 -72.7591C200.686 -72.4885 200.949 -72.3132 201.22 -72.3672C201.664 -70.1266 202.075 -67.8702 202.45 -65.5989C202.178 -65.5542 201.993 -65.2975 202.038 -65.0251C202.457 -62.4496 202.831 -59.8549 203.16 -57.2422C203.194 -56.9684 203.444 -56.7743 203.718 -56.8084C203.997 -54.5425 204.242 -52.2633 204.451 -49.9715C204.176 -49.9467 203.973 -49.704 203.998 -49.4291C204.229 -46.8338 204.415 -44.2223 204.555 -41.5959C204.569 -41.3204 204.804 -41.1088 205.08 -41.1231Z" stroke="#000080" stroke-opacity="0.5" stroke-linecap="round" stroke-dasharray="8 8"/>
</g>
</svg>
